<?xml version="1.0" standalone="no"?>
<!DOCTYPE svg PUBLIC "-//W3C//DTD SVG 20010904//EN"
 "http://www.w3.org/TR/2001/REC-SVG-20010904/DTD/svg10.dtd">
<svg version="1.0" xmlns="http://www.w3.org/2000/svg"
 width="500.000000pt" height="380.000000pt" viewBox="0 0 500.000000 380.000000"
 preserveAspectRatio="xMidYMid meet">

<g transform="translate(0.000000,380.000000) scale(0.100000,-0.100000)"
fill="#000000" stroke="none">
<path d="M2135 3755 c-203 -27 -376 -79 -565 -171 -373 -181 -659 -460 -844
-824 -58 -113 -146 -344 -146 -382 0 -8 19 -24 43 -34 61 -27 123 -93 137
-145 21 -77 -13 -178 -76 -228 -22 -17 -24 -23 -14 -36 19 -23 29 -18 46 25 9
22 29 49 44 60 34 24 106 27 138 4 19 -13 26 -13 38 -3 9 7 34 15 57 18 l42 6
22 111 c28 145 62 245 128 373 185 360 526 618 928 702 146 31 381 31 526 0
406 -86 740 -333 924 -686 130 -247 155 -337 118 -419 -13 -30 -16 -46 -8 -43
6 2 13 13 15 25 4 24 22 20 22 -4 0 -9 12 -28 28 -43 26 -27 30 -28 109 -23
72 4 87 2 139 -22 l57 -26 26 24 c35 34 71 40 114 22 24 -10 39 -11 43 -4 20
31 -30 301 -86 470 -132 395 -397 739 -747 969 -91 60 -286 156 -393 194 -265
94 -581 127 -865 90z m386 -205 c11 0 19 -5 19 -11 0 -6 -17 -9 -42 -7 -38 3
-43 0 -46 -19 -3 -19 1 -23 25 -23 15 0 35 -5 43 -10 11 -7 4 -10 -27 -10 -39
0 -43 -2 -43 -25 0 -22 4 -25 34 -25 19 0 38 -5 41 -11 5 -7 -11 -9 -47 -7
l-53 3 4 70 c2 39 5 74 8 79 3 4 19 5 35 2 17 -3 39 -6 49 -6z m-191 -20 c12
-12 20 -33 20 -55 0 -49 -29 -75 -84 -75 l-44 0 -7 65 c-3 35 -4 69 0 75 12
19 93 12 115 -10z m398 -27 c6 -9 12 -22 12 -29 0 -17 -28 -44 -47 -44 -13 0
-13 -3 1 -26 10 -14 15 -31 13 -37 -2 -6 -16 7 -32 31 -15 23 -31 42 -36 42
-4 0 -10 -13 -14 -30 -7 -31 -25 -42 -25 -15 0 14 18 110 25 132 5 16 86 -3
103 -24z m-598 -30 c6 -32 13 -63 15 -70 10 -29 -19 -22 -60 16 -25 23 -47 41
-51 41 -3 0 -3 -22 1 -50 10 -71 -11 -65 -25 8 -6 31 -14 65 -16 75 -9 28 17
20 69 -25 l49 -41 -7 51 c-10 72 11 68 25 -5z m-206 -40 c22 -65 20 -90 -8
-108 -43 -28 -78 -16 -103 35 -23 48 -29 80 -14 80 5 0 17 -22 26 -50 19 -57
27 -64 59 -56 32 8 38 28 21 77 -17 48 -19 69 -6 69 5 0 16 -21 25 -47z m1088
-9 c29 -27 10 -36 -23 -12 -28 21 -32 21 -57 7 -19 -10 -28 -24 -30 -47 -4
-40 12 -62 44 -62 12 0 26 -4 29 -10 14 -22 -56 -9 -80 15 -34 33 -32 70 5
107 26 25 36 29 62 24 18 -3 40 -14 50 -22z m-1382 -73 c0 -5 -14 -14 -31 -20
-21 -7 -29 -16 -27 -28 3 -15 12 -17 46 -15 24 2 50 -2 58 -8 32 -27 6 -71
-48 -84 -38 -9 -35 7 5 25 17 8 32 21 32 29 0 12 -11 14 -52 12 -43 -3 -53 0
-62 17 -6 11 -8 27 -5 36 11 27 84 59 84 36z m1555 -16 c16 -15 25 -36 25 -55
0 -19 -9 -40 -25 -55 -15 -16 -36 -25 -55 -25 -19 0 -40 9 -55 25 -16 15 -25
36 -25 55 0 19 9 40 25 55 15 16 36 25 55 25 19 0 40 -9 55 -25z m-1720 -85
c-17 -19 -17 -21 10 -60 16 -23 32 -43 37 -46 11 -7 10 -24 -2 -24 -5 0 -26
22 -46 49 -36 48 -38 49 -61 34 -40 -27 -27 8 15 39 45 33 74 38 47 8z m1863
-60 c-1 -32 0 -61 3 -64 3 -4 17 9 30 29 13 19 30 35 37 35 15 0 12 -6 -37
-73 -48 -66 -61 -62 -61 21 l-1 67 -32 -38 c-32 -36 -47 -46 -47 -28 0 18 91
121 102 115 5 -3 8 -32 6 -64z m-1998 -37 c0 -4 -12 -19 -27 -35 -21 -22 -24
-30 -14 -42 11 -13 16 -13 42 6 38 29 49 16 13 -16 -28 -24 -28 -26 -12 -42
17 -17 19 -17 48 11 44 42 51 21 7 -22 l-37 -37 -31 29 c-17 17 -40 43 -51 58
l-20 29 33 34 c31 32 49 42 49 27z m2185 -63 c40 -41 43 -62 6 -38 -19 11 -25
8 -66 -32 -24 -24 -48 -41 -52 -37 -4 4 15 29 41 56 41 42 45 49 32 61 -17 13
-21 30 -8 30 4 0 25 -18 47 -40z m-2345 -105 c-24 -25 -21 -55 4 -55 8 0 23
12 34 27 11 15 22 22 25 16 4 -6 -3 -23 -14 -38 -20 -25 -21 -28 -5 -43 16
-16 18 -15 42 16 24 30 44 42 44 25 0 -5 -15 -25 -33 -47 l-33 -38 -57 46
c-31 26 -57 51 -57 56 0 17 64 83 68 70 2 -6 -6 -22 -18 -35z m2490 -79 c0
-31 -22 -48 -57 -44 -24 3 -28 -1 -31 -24 -2 -16 -8 -28 -14 -28 -7 0 -8 17
-4 50 5 40 4 50 -8 50 -8 0 -18 -4 -21 -10 -7 -12 -35 -14 -35 -2 0 4 26 26
58 50 l57 44 27 -31 c16 -17 28 -42 28 -55z m-2490 -150 c0 -9 -62 -3 -110 11
l-24 6 22 -29 c71 -92 67 -100 -31 -72 -78 22 -84 25 -74 35 4 3 32 -1 62 -9
30 -8 55 -13 55 -11 0 3 -16 25 -37 49 -45 56 -36 68 37 49 30 -8 57 -15 58
-15 2 0 -14 22 -37 49 -22 26 -37 51 -33 56 7 7 112 -103 112 -119z m2563 42
c77 -40 54 -148 -32 -148 -71 0 -109 81 -58 127 36 33 58 38 90 21z m-2793
-187 c0 -5 -7 -14 -15 -21 -17 -15 -20 -46 -4 -56 6 -3 26 8 44 26 35 34 61
36 79 8 13 -21 -16 -88 -39 -88 -11 0 -10 7 7 36 15 26 18 38 9 47 -8 8 -19 3
-44 -21 -18 -18 -43 -32 -55 -32 -25 0 -45 31 -35 57 12 36 53 70 53 44z
m2910 -7 c0 -3 -26 -17 -57 -30 -32 -14 -59 -27 -61 -29 -2 -2 4 -17 12 -34
18 -34 20 -51 7 -51 -9 0 -41 71 -41 90 0 6 24 21 53 34 50 24 87 32 87 20z"/>
<path d="M2240 3475 c0 -54 0 -55 29 -55 36 0 61 23 61 55 0 32 -25 55 -61 55
-29 0 -29 -1 -29 -55z"/>
<path d="M2640 3485 c0 -18 7 -26 24 -31 30 -7 46 1 46 26 0 19 -19 30 -51 30
-14 0 -19 -7 -19 -25z"/>
<path d="M3104 3332 c-13 -8 -34 -46 -34 -61 0 -18 39 -51 60 -51 11 0 29 9
40 20 11 11 20 29 20 40 0 40 -55 73 -86 52z"/>
<path d="M3580 2944 c-10 -11 -11 -20 -4 -32 31 -49 82 -35 54 15 -19 33 -33
38 -50 17z"/>
<path d="M3653 2754 c-15 -24 -15 -29 -2 -53 20 -36 71 -41 93 -9 21 29 20 51
-2 71 -28 26 -69 21 -89 -9z"/>
<path d="M2215 3139 c-455 -62 -844 -377 -999 -807 -29 -83 -69 -268 -61 -282
4 -6 26 -10 51 -10 42 0 44 1 44 29 0 46 45 210 83 297 109 258 348 493 610
600 167 68 221 77 432 78 179 1 196 -1 290 -27 326 -91 589 -307 735 -603 l46
-91 38 33 38 33 -48 92 c-171 331 -484 568 -849 644 -96 20 -313 28 -410 14z"/>
<path d="M2090 2294 c-35 -41 -61 -95 -86 -182 -9 -31 -18 -59 -20 -61 -2 -2
-26 -5 -55 -6 -59 -3 -79 -16 -59 -40 7 -8 22 -15 34 -15 64 -1 66 -4 66 -110
l0 -98 -32 -24 c-61 -46 -117 -69 -161 -66 -58 4 -61 29 -7 53 53 24 107 84
116 129 14 75 -60 137 -138 116 -65 -18 -128 -112 -128 -191 0 -16 -9 -38 -21
-50 -51 -51 -162 -76 -190 -43 -10 13 -10 17 2 25 8 5 19 9 25 9 6 0 30 13 52
30 100 72 97 190 -5 219 -31 9 -90 -6 -119 -30 -24 -19 -61 -99 -69 -147 -11
-65 -75 -86 -114 -36 l-20 25 34 66 c19 35 35 76 35 89 0 29 -31 44 -70 35
-26 -7 -43 -35 -105 -171 -36 -79 -42 -62 -21 65 8 50 12 93 9 98 -2 4 -19 7
-37 7 -45 0 -67 -27 -113 -140 -43 -109 -51 -99 -33 38 10 79 10 87 -6 99 -23
17 -27 17 -56 -7 -33 -25 -48 -88 -47 -192 1 -149 30 -209 86 -178 35 20 58
53 87 123 13 32 27 58 32 58 5 -1 11 -41 14 -90 3 -49 9 -93 13 -97 15 -15 56
17 88 70 34 55 49 68 49 43 0 -41 90 -69 151 -48 31 11 35 9 67 -24 56 -58
142 -59 241 -4 l53 30 27 -24 c38 -36 65 -47 109 -47 52 0 111 22 169 61 44
31 47 32 57 14 6 -11 23 -32 38 -47 38 -40 80 -37 175 12 43 23 79 37 81 33
33 -95 86 -94 148 2 l35 56 24 -25 c29 -32 65 -41 118 -30 39 9 42 8 78 -31
37 -39 39 -40 106 -40 57 0 77 5 124 31 l57 31 13 -31 c10 -22 22 -32 41 -34
26 -3 31 4 85 112 32 64 60 116 63 116 3 0 6 -42 5 -94 0 -102 15 -136 60
-136 20 0 84 29 131 60 20 12 25 11 57 -23 45 -48 82 -49 173 -2 38 19 72 35
76 35 3 0 22 -16 41 -35 28 -28 43 -35 74 -35 55 0 103 30 138 85 24 38 29 58
30 109 0 33 -4 74 -8 89 l-8 29 28 -17 c15 -9 42 -28 60 -43 l32 -27 -9 -75
c-11 -82 -3 -128 23 -144 36 -23 46 -7 123 202 9 23 19 42 24 42 4 0 10 -17
14 -39 9 -58 35 -84 92 -90 45 -6 49 -8 55 -39 14 -69 80 -100 146 -68 20 9
38 15 40 12 3 -3 -39 -52 -94 -109 -112 -116 -159 -195 -148 -246 8 -38 25
-52 73 -58 58 -8 122 24 161 80 27 40 70 155 85 228 4 16 22 37 48 54 23 15
64 48 90 73 45 42 48 48 42 81 -4 20 -8 38 -10 40 -2 2 -34 -27 -71 -65 l-67
-69 -3 30 c-2 17 7 88 20 158 20 107 21 129 10 139 -11 8 -22 7 -48 -5 -36
-17 -38 -22 -68 -152 -22 -93 -42 -127 -75 -123 -25 3 -27 7 -30 56 -2 31 5
83 18 129 24 86 21 103 -15 103 -41 0 -71 -44 -101 -147 -2 -7 -17 -13 -34
-13 -40 0 -49 25 -38 98 9 59 0 82 -34 82 -33 0 -56 -18 -85 -68 l-28 -47 -3
55 c-2 30 -8 57 -14 61 -20 13 -46 -3 -58 -34 -7 -18 -15 -40 -18 -49 -6 -15
-13 -13 -52 18 -60 49 -103 66 -166 66 -102 1 -175 -69 -191 -183 -8 -50 -12
-56 -57 -86 -53 -36 -105 -43 -130 -17 -12 12 -16 37 -16 105 0 82 2 94 26
125 l26 34 89 0 c87 0 89 0 89 24 0 29 -16 36 -81 36 -27 0 -49 2 -49 5 0 3
12 29 26 58 55 108 36 237 -35 237 -21 0 -38 -10 -60 -35 -40 -46 -54 -75 -81
-165 -13 -41 -24 -77 -26 -79 -2 -2 -26 -5 -55 -6 -59 -3 -79 -16 -59 -40 7
-8 22 -15 34 -15 11 0 31 -3 44 -6 21 -6 22 -11 22 -119 l0 -113 -36 -32 c-22
-19 -44 -30 -57 -28 -20 3 -22 9 -21 73 0 39 4 98 9 132 9 72 -1 93 -45 93
-32 0 -46 -15 -91 -97 -18 -35 -37 -63 -41 -63 -5 0 -8 1 -8 3 0 1 4 28 10 61
11 68 1 96 -34 96 -35 0 -45 -19 -63 -117 -18 -100 -32 -121 -107 -158 -53
-27 -114 -33 -134 -13 -18 18 -15 25 11 32 44 11 108 66 128 110 34 79 -8 149
-92 149 -76 0 -129 -56 -160 -168 l-16 -60 -41 -3 c-37 -3 -43 0 -52 22 -10
27 -2 63 24 114 23 45 21 81 -6 91 -45 17 -61 -1 -116 -130 -29 -68 -57 -128
-62 -133 -5 -5 -6 52 -3 128 l6 136 -41 0 c-31 0 -44 5 -52 20 -9 17 -21 20
-70 20 -33 0 -60 2 -60 4 0 2 13 33 30 68 36 77 40 146 10 196 -28 46 -67 44
-110 -4z m66 -120 c-33 -99 -86 -167 -86 -111 0 38 36 146 56 168 15 17 20 18
32 5 12 -12 12 -20 -2 -62z m1414 10 c-17 -52 -57 -131 -71 -139 -24 -16 -26
14 -5 88 27 90 52 126 74 103 12 -12 12 -20 2 -52z m-1290 -313 l0 -99 -32
-24 c-76 -58 -141 -74 -172 -42 -12 12 -16 37 -16 105 0 82 2 94 26 125 26 34
26 34 110 34 l84 0 0 -99z m-802 37 c21 -21 13 -55 -19 -82 -17 -14 -39 -26
-50 -26 -29 0 -25 51 7 89 28 33 43 38 62 19z m331 -10 c12 -32 -10 -71 -51
-91 -43 -21 -55 -9 -39 42 18 63 74 92 90 49z m1029 -11 c4 -32 -17 -61 -60
-83 -33 -17 -42 -6 -34 41 7 37 49 78 75 73 9 -2 17 -16 19 -31z m1038 8 c12
-19 15 -41 12 -90 -5 -74 -30 -118 -71 -123 -71 -9 -77 148 -8 217 28 28 47
26 67 -4z m674 -428 c0 -31 -33 -106 -61 -140 -33 -41 -79 -52 -79 -19 0 22
42 85 88 135 38 39 52 46 52 24z"/>
<path d="M380 2311 c-128 -42 -189 -142 -144 -237 22 -47 64 -80 186 -144 130
-70 168 -106 168 -161 0 -79 -80 -129 -203 -129 -68 0 -118 20 -143 57 -13 21
-15 39 -10 85 6 65 -2 76 -49 64 -61 -15 -73 -133 -20 -202 80 -105 313 -124
440 -36 87 61 113 180 56 259 -32 45 -62 65 -200 138 -95 50 -141 94 -141 136
0 31 47 76 95 89 81 23 186 -6 205 -55 10 -27 8 -38 -22 -103 -11 -23 -17 -49
-14 -57 13 -35 82 -1 111 55 22 42 19 116 -6 156 -11 19 -41 46 -67 61 -38 23
-59 27 -131 30 -47 1 -97 -1 -111 -6z"/>
<path d="M413 2166 c-34 -15 -43 -39 -20 -53 6 -4 36 -6 65 -4 31 2 59 -2 67
-9 12 -10 17 -7 27 14 9 22 9 29 -3 41 -22 22 -98 28 -136 11z"/>
<path d="M174 2026 c10 -74 63 -125 211 -205 44 -24 92 -52 106 -62 28 -19 39
-16 39 11 0 26 -48 64 -146 114 -98 50 -165 101 -196 150 l-20 31 6 -39z"/>
<path d="M3553 1905 c-20 -14 -23 -25 -23 -86 0 -38 4 -69 10 -69 26 0 61 26
66 49 2 14 9 40 15 56 6 17 11 37 12 45 3 21 -53 25 -80 5z"/>
<path d="M4210 1654 c-11 -25 -20 -49 -20 -53 0 -4 -10 -17 -23 -29 -50 -47
-148 -18 -162 48 -4 17 -9 30 -11 30 -3 0 -17 -14 -31 -30 -61 -73 -185 -94
-259 -44 l-38 26 -53 -26 c-68 -33 -141 -35 -190 -5 l-34 21 -51 -21 c-69 -29
-132 -28 -162 2 -13 13 -26 30 -29 38 -5 11 -8 10 -18 -5 -6 -10 -20 -27 -30
-37 -26 -26 -99 -26 -130 0 -22 18 -24 18 -67 -1 -66 -30 -174 -23 -230 15
-33 21 -53 27 -96 27 -30 0 -66 4 -80 10 -22 8 -29 6 -48 -20 -46 -63 -131
-75 -178 -25 l-23 24 -48 -24 c-83 -43 -180 -30 -221 29 -4 6 -36 -4 -78 -23
-64 -30 -78 -33 -145 -29 -57 2 -81 8 -104 26 l-31 22 -42 -21 c-46 -23 -136
-35 -191 -25 -19 4 -51 18 -71 31 -28 19 -51 25 -94 26 -31 0 -66 4 -77 8 -16
7 -29 0 -62 -30 -54 -50 -109 -54 -142 -13 l-21 26 -31 -26 c-42 -36 -109 -36
-144 -1 -14 13 -25 29 -25 35 0 18 -17 11 -51 -22 -134 -125 -417 -123 -535 4
-17 18 -36 42 -42 53 -11 19 -11 19 -12 -3 -1 -64 62 -140 149 -180 73 -33
203 -42 285 -18 32 10 59 16 60 14 1 -2 19 -55 40 -119 247 -763 959 -1279
1766 -1279 863 0 1612 595 1809 1438 12 51 26 104 32 119 9 24 11 25 27 9 10
-8 33 -19 50 -22 22 -4 38 -17 52 -40 25 -43 47 -52 68 -29 15 15 15 18 2 23
-24 9 -80 69 -80 86 0 9 -11 18 -27 21 -16 3 -41 12 -56 20 -28 15 -28 14 -47
-31z m-3022 -113 c7 -4 28 -44 46 -88 151 -376 495 -664 885 -742 204 -41 391
-36 582 15 213 57 385 158 549 323 114 114 187 217 247 347 37 80 38 82 97
108 33 14 61 24 64 22 14 -15 -84 -233 -150 -337 -210 -328 -565 -553 -951
-604 -145 -19 -211 -19 -351 0 -435 58 -815 321 -1014 704 -106 203 -121 281
-49 265 18 -3 38 -10 45 -13z m1387 5 c44 -1 69 -7 90 -22 69 -48 133 -55 225
-24 l60 20 30 -21 c50 -37 107 -18 151 50 9 14 11 14 16 1 4 -8 19 -27 34 -42
35 -36 76 -36 149 -2 46 21 58 23 77 13 30 -16 29 -38 -3 -102 -75 -148 -190
-290 -316 -391 -109 -87 -291 -178 -423 -212 -139 -36 -343 -44 -482 -19 -316
56 -589 238 -764 508 -55 86 -107 193 -97 202 3 3 26 -2 52 -11 58 -20 123
-14 195 16 l50 22 56 -27 c47 -24 64 -27 111 -22 30 3 84 19 119 36 56 26 65
28 76 14 20 -24 86 -53 120 -53 17 0 58 12 91 27 l59 26 27 -26 c47 -45 140
-27 172 33 10 18 17 21 38 14 15 -4 54 -8 87 -8z m578 -976 c-5 -27 -3 -30 20
-30 32 0 51 -23 43 -55 -7 -27 -38 -48 -64 -42 -13 3 -10 7 11 15 57 24 43 76
-14 55 l-31 -12 5 34 c6 36 -1 43 -20 24 -6 -6 -17 -9 -24 -7 -8 3 2 15 26 31
45 31 57 27 48 -13z m-1514 15 c29 -14 49 -45 30 -45 -6 0 -17 7 -25 15 -18
17 -54 20 -54 4 0 -6 11 -24 25 -41 31 -36 31 -52 4 -72 -31 -21 -89 7 -89 42
0 12 5 10 23 -6 13 -12 31 -22 40 -22 23 0 22 33 -3 55 -25 22 -26 61 -2 74
22 13 18 13 51 -4z m141 -80 c0 -21 -61 -135 -70 -130 -6 4 -5 15 4 33 8 15
21 44 29 65 9 20 21 37 26 37 6 0 11 -2 11 -5z m1218 -7 c7 -7 12 -19 12 -28
0 -8 9 -23 20 -33 11 -9 20 -24 20 -32 0 -25 -38 -55 -70 -55 -31 0 -56 30
-46 55 2 7 -2 19 -10 25 -21 18 -17 47 8 64 27 19 50 20 66 4z m-1087 -95 c23
-71 23 -71 49 0 5 15 15 27 21 27 6 0 9 -6 6 -12 -2 -7 -13 -39 -23 -70 -10
-32 -23 -58 -30 -58 -7 0 -20 24 -29 53 -18 52 -35 82 -35 59 0 -25 -30 -83
-39 -78 -8 6 3 48 34 134 10 27 24 9 46 -55z m909 10 c24 -31 22 -69 -7 -112
-19 -29 -30 -13 -14 18 10 18 9 19 -22 14 -39 -6 -59 13 -59 54 0 54 66 71
102 26z m-634 -27 c10 -8 16 -18 11 -22 -4 -4 -13 -2 -19 4 -32 32 -98 -2 -98
-50 0 -31 38 -61 71 -56 18 3 28 1 26 -6 -2 -6 -18 -12 -35 -14 -42 -4 -82 34
-82 78 0 62 76 102 126 66z m438 -3 c13 -33 19 -133 8 -133 -5 0 -13 27 -17
61 -4 37 -12 63 -21 66 -8 3 -11 9 -8 14 9 15 31 10 38 -8z m-229 -13 c-3 -5
-24 -10 -46 -10 -35 0 -39 -3 -39 -25 0 -23 4 -25 41 -25 24 0 38 -4 34 -10
-3 -5 -22 -10 -41 -10 -30 0 -34 -3 -34 -25 0 -22 4 -25 40 -25 22 0 40 -4 40
-10 0 -14 -73 -12 -91 3 -11 9 -14 29 -11 80 l4 67 54 0 c34 0 53 -4 49 -10z"/>
<path d="M2940 475 c-9 -11 -10 -19 -3 -26 17 -17 48 -6 48 16 0 25 -28 31
-45 10z"/>
<path d="M2966 415 c-19 -19 -10 -45 14 -45 29 0 53 29 39 46 -15 18 -34 18
-53 -1z"/>
<path d="M2752 411 c-8 -4 -12 -19 -10 -32 4 -29 45 -34 61 -7 19 30 -19 60
-51 39z"/>
<path d="M4854 1629 c-10 -11 -48 -43 -85 -71 -58 -44 -68 -57 -73 -90 -9 -52
-50 -153 -82 -199 -74 -107 -218 -138 -300 -67 -29 26 -34 27 -34 12 0 -33 39
-85 75 -100 141 -59 277 51 330 268 16 62 20 68 72 104 58 40 133 119 133 140
0 23 -17 24 -36 3z"/>
</g>
</svg>
