<?xml version="1.0" ?><svg xmlns="http://www.w3.org/2000/svg" xmlns:xlink="http://www.w3.org/1999/xlink" version="1.1" id="Layer_1" viewBox="0 0 24 24" enable-background="new 0 0 24 24" xml:space="preserve"><g><path d="M14.82,5.32c-0.15-0.48-0.37-0.92-0.64-1.29c-0.28-0.38-0.6-0.67-0.97-0.88C12.83,2.93,12.42,2.82,12,2.82   c-0.42,0-0.83,0.11-1.21,0.33c-0.36,0.21-0.69,0.51-0.97,0.88C9.55,4.41,9.33,4.84,9.18,5.32c-0.16,0.5-0.23,1.03-0.23,1.57   C8.95,7.35,9,7.8,9.11,8.23c0.11,0.42,0.26,0.8,0.46,1.15c0.2,0.35,0.44,0.65,0.71,0.89c0.24,0.22,0.51,0.39,0.79,0.51l-0.6,8.73   c-0.04,0.45,0.12,0.89,0.44,1.22c0.29,0.29,0.67,0.45,1.08,0.45c0.22,0,0.43-0.05,0.63-0.13c0.19-0.09,0.36-0.21,0.5-0.36   c0.14-0.16,0.25-0.33,0.31-0.53c0.07-0.2,0.1-0.42,0.08-0.64l-0.67-8.19c-0.01-0.09-0.09-0.16-0.18-0.16   c-0.09,0.01-0.16,0.09-0.16,0.18l0.67,8.19c0,0,0,0,0,0c0.03,0.33-0.08,0.66-0.3,0.91c-0.22,0.25-0.54,0.39-0.87,0.39   c-0.32,0-0.61-0.12-0.84-0.35c-0.25-0.25-0.37-0.59-0.34-0.95c0,0,0,0,0,0l0.61-8.86c0.01-0.08-0.04-0.15-0.11-0.17   c-1.2-0.43-2.03-1.91-2.03-3.61c0-2.06,1.22-3.73,2.71-3.73s2.71,1.67,2.71,3.73c0,1.69-0.82,3.16-2,3.6l-0.65-0.01   c-0.09,0-0.17,0.07-0.17,0.17c0,0.09,0.07,0.17,0.17,0.17l0.69,0.01c0.02,0,0.04,0,0.06-0.01c0.33-0.12,0.63-0.3,0.91-0.56   c0.27-0.25,0.51-0.55,0.71-0.89c0.2-0.35,0.36-0.74,0.46-1.15C15,7.8,15.05,7.35,15.05,6.89C15.05,6.35,14.97,5.82,14.82,5.32z"/><path d="M13.25,9.29c0.03,0.02,0.07,0.04,0.11,0.04c0.05,0,0.1-0.02,0.13-0.07c0.65-0.83,0.92-1.94,0.72-2.97   c-0.02-0.09-0.11-0.15-0.2-0.13c-0.09,0.02-0.15,0.11-0.13,0.2c0.18,0.94-0.06,1.94-0.65,2.69C13.16,9.12,13.18,9.23,13.25,9.29z"/><path d="M13.85,5.86c0.02,0,0.03,0,0.05-0.01c0.09-0.03,0.14-0.12,0.12-0.21c-0.08-0.27-0.19-0.53-0.33-0.78   c-0.05-0.08-0.15-0.11-0.23-0.06c-0.08,0.05-0.11,0.15-0.06,0.23c0.13,0.22,0.23,0.46,0.3,0.7C13.71,5.81,13.77,5.86,13.85,5.86z"/></g></svg>